<?xml version="1.0" encoding="utf-8"?>
<!-- Generator: Adobe Illustrator 16.0.0, SVG Export Plug-In . SVG Version: 6.00 Build 0)  -->
<!DOCTYPE svg PUBLIC "-//W3C//DTD SVG 1.1//EN" "http://www.w3.org/Graphics/SVG/1.1/DTD/svg11.dtd">
<svg version="1.1" id="Capa_1" xmlns="http://www.w3.org/2000/svg" xmlns:xlink="http://www.w3.org/1999/xlink" x="0px" y="0px"
	 width="200px" height="50px" viewBox="0 0 200 50" enable-background="new 0 0 200 50" xml:space="preserve">
<g>
	<g>
		<rect x="0.677" y="12.355" fill="#404A99" width="161.824" height="25.75"/>
		<path fill="#404A99" d="M163.178,38.921H0V11.539h163.178V38.921z M1.354,37.289h160.471V13.171H1.354V37.289z"/>
	</g>
	<g>
		<polygon fill="#404A99" points="200.102,38.921 162.501,38.921 162.501,37.289 198.748,37.289 198.748,13.171 162.501,13.171 
			162.501,11.539 200.102,11.539 		"/>
	</g>
	<g>
		<g>
			<path fill="#FFFFFF" d="M7.152,22.429h5.286v-5.78h1.85v14.776h-1.85v-6.9H7.152v6.9H5.303V16.649h1.849V22.429z"/>
		</g>
		<g>
			<path fill="#FFFFFF" d="M19.769,26.697c0-1.346,0.399-2.491,1.199-3.436c0.798-0.944,1.772-1.416,2.92-1.416
				c1.153,0,2.132,0.475,2.937,1.426c0.793,0.95,1.19,2.118,1.19,3.502c0,1.397-0.399,2.568-1.198,3.513
				c-0.805,0.938-1.792,1.406-2.96,1.406c-1.159,0-2.13-0.478-2.913-1.436C20.16,29.313,19.769,28.127,19.769,26.697z
				 M21.594,26.735c0,0.932,0.206,1.669,0.619,2.211c0.423,0.549,0.981,0.823,1.675,0.823c0.698,0,1.257-0.271,1.674-0.813
				c0.418-0.542,0.627-1.267,0.627-2.173c0-0.906-0.209-1.63-0.627-2.172c-0.423-0.548-0.981-0.823-1.674-0.823
				c-0.683,0-1.236,0.274-1.659,0.823C21.806,25.16,21.594,25.868,21.594,26.735z"/>
		</g>
		<g>
			<path fill="#FFFFFF" d="M33.154,22.104h1.786v0.861c0.344-0.434,0.638-0.727,0.881-0.88c0.259-0.159,0.584-0.239,0.976-0.239
				c0.873,0,1.563,0.459,2.071,1.378c0.561-0.919,1.32-1.378,2.278-1.378c1.741,0,2.611,1.272,2.611,3.818v5.761h-1.794v-5.177
				c0-0.894-0.09-1.525-0.27-1.896c-0.186-0.376-0.49-0.564-0.913-0.564c-0.492,0-0.851,0.224-1.075,0.67
				c-0.225,0.447-0.337,1.165-0.337,2.153v4.813h-1.793v-5.148c0-1.659-0.397-2.488-1.19-2.488c-0.503,0-0.869,0.227-1.1,0.679
				c-0.23,0.453-0.345,1.168-0.345,2.144v4.813h-1.786V22.104z"/>
		</g>
		<g>
			<path fill="#FFFFFF" d="M48.897,26.697c0-1.346,0.399-2.491,1.198-3.436s1.772-1.416,2.921-1.416
				c1.153,0,2.132,0.475,2.937,1.426c0.793,0.95,1.19,2.118,1.19,3.502c0,1.397-0.399,2.568-1.199,3.513
				c-0.804,0.938-1.791,1.406-2.96,1.406c-1.159,0-2.13-0.478-2.913-1.436C49.289,29.313,48.897,28.127,48.897,26.697z
				 M50.723,26.735c0,0.932,0.207,1.669,0.619,2.211c0.423,0.549,0.981,0.823,1.675,0.823c0.698,0,1.256-0.271,1.674-0.813
				s0.627-1.267,0.627-2.173c0-0.906-0.209-1.63-0.627-2.172c-0.423-0.548-0.981-0.823-1.674-0.823
				c-0.683,0-1.236,0.274-1.659,0.823C50.935,25.16,50.723,25.868,50.723,26.735z"/>
		</g>
		<g>
			<path fill="#FFFFFF" d="M68.299,22.506v2.861c-0.408-0.6-0.772-1.011-1.095-1.234c-0.317-0.23-0.69-0.345-1.119-0.345
				c-0.672,0-1.23,0.284-1.675,0.852c-0.444,0.567-0.667,1.279-0.667,2.133c0,0.875,0.214,1.593,0.643,2.154
				c0.434,0.561,0.987,0.842,1.659,0.842c0.429,0,0.807-0.111,1.135-0.335c0.317-0.217,0.69-0.638,1.119-1.264v2.842
				c-0.725,0.453-1.45,0.68-2.175,0.68c-1.195,0-2.196-0.465-3-1.397c-0.804-0.938-1.206-2.102-1.206-3.492s0.407-2.565,1.222-3.521
				c0.814-0.958,1.814-1.436,3-1.436C66.902,21.846,67.622,22.065,68.299,22.506z"/>
		</g>
		<g>
			<path fill="#FFFFFF" d="M73.011,18.228c0-0.376,0.113-0.702,0.341-0.976c0.227-0.274,0.5-0.412,0.817-0.412
				c0.323,0,0.598,0.137,0.825,0.412c0.228,0.268,0.341,0.596,0.341,0.986c0,0.389-0.114,0.721-0.341,0.995
				c-0.222,0.274-0.495,0.412-0.817,0.412s-0.598-0.138-0.825-0.412C73.124,18.958,73.011,18.624,73.011,18.228z M75.066,22.104
				v9.321H73.28v-9.321H75.066z"/>
		</g>
		<g>
			<path fill="#FFFFFF" d="M85.071,23.692l-1.476,0.948c-0.233-0.574-0.521-0.862-0.865-0.862c-0.164,0-0.304,0.066-0.42,0.197
				c-0.117,0.13-0.175,0.298-0.175,0.502c0,0.357,0.344,0.711,1.032,1.063c0.947,0.492,1.584,0.944,1.913,1.359
				c0.328,0.414,0.492,0.973,0.492,1.675c0,0.899-0.275,1.652-0.826,2.258c-0.535,0.574-1.18,0.861-1.937,0.861
				c-1.296,0-2.214-0.763-2.754-2.287l1.523-0.852c0.212,0.447,0.373,0.73,0.484,0.852c0.217,0.243,0.476,0.364,0.778,0.364
				c0.603,0,0.905-0.332,0.905-0.996c0-0.382-0.233-0.739-0.699-1.071c-0.18-0.108-0.359-0.214-0.54-0.316
				c-0.18-0.102-0.362-0.207-0.547-0.315c-0.519-0.307-0.884-0.612-1.095-0.918c-0.27-0.39-0.405-0.891-0.405-1.503
				c0-0.81,0.23-1.48,0.69-2.01c0.471-0.529,1.042-0.794,1.714-0.794C83.854,21.846,84.589,22.461,85.071,23.692z"/>
		</g>
		<g>
			<path fill="#FFFFFF" d="M92.266,24.114v7.311H90.48v-7.311h-0.762v-2.01h0.762v-3.417h1.786v3.417h1.389v2.01H92.266z"/>
		</g>
		<g>
			<path fill="#FFFFFF" d="M97.85,18.228c0-0.376,0.114-0.702,0.342-0.976c0.227-0.274,0.5-0.412,0.817-0.412
				c0.323,0,0.598,0.137,0.826,0.412c0.228,0.268,0.341,0.596,0.341,0.986c0,0.389-0.114,0.721-0.341,0.995
				c-0.222,0.274-0.495,0.412-0.817,0.412s-0.598-0.138-0.825-0.412C97.964,18.958,97.85,18.624,97.85,18.228z M99.906,22.104v9.321
				H98.12v-9.321H99.906z"/>
		</g>
		<g>
			<path fill="#FFFFFF" d="M105.419,22.104h1.793v0.861c0.625-0.746,1.328-1.119,2.111-1.119c0.899,0,1.601,0.341,2.104,1.023
				c0.434,0.581,0.65,1.528,0.65,2.842v5.713h-1.794v-5.206c0-0.919-0.105-1.553-0.316-1.904c-0.207-0.357-0.583-0.536-1.128-0.536
				c-0.592,0-1.013,0.236-1.262,0.708c-0.243,0.466-0.365,1.279-0.365,2.44v4.498h-1.793V22.104z"/>
		</g>
		<g>
			<path fill="#FFFFFF" d="M119.368,22.104v5.349c0,1.544,0.505,2.316,1.516,2.316s1.516-0.772,1.516-2.316v-5.349h1.786v5.397
				c0,0.747-0.077,1.392-0.23,1.934c-0.148,0.484-0.404,0.922-0.77,1.311c-0.604,0.632-1.371,0.947-2.302,0.947
				c-0.926,0-1.69-0.315-2.294-0.947c-0.37-0.389-0.633-0.826-0.786-1.311c-0.147-0.434-0.222-1.078-0.222-1.934v-5.397H119.368z"/>
		</g>
		<g>
			<path fill="#FFFFFF" d="M129.69,22.104h1.785v0.832c0.328-0.414,0.619-0.698,0.873-0.852c0.26-0.159,0.566-0.239,0.921-0.239
				c0.471,0,0.963,0.185,1.476,0.555l-0.817,1.971c-0.339-0.293-0.669-0.44-0.992-0.44c-0.973,0-1.46,0.887-1.46,2.66v4.833h-1.785
				V22.104z"/>
		</g>
		<g>
			<path fill="#FFFFFF" d="M138.996,18.228c0-0.376,0.114-0.702,0.342-0.976s0.5-0.412,0.817-0.412c0.323,0,0.598,0.137,0.825,0.412
				c0.228,0.268,0.341,0.596,0.341,0.986c0,0.389-0.113,0.721-0.341,0.995c-0.223,0.274-0.494,0.412-0.817,0.412
				c-0.322,0-0.598-0.138-0.825-0.412C139.11,18.958,138.996,18.624,138.996,18.228z M141.052,22.104v9.321h-1.785v-9.321H141.052z"
				/>
		</g>
		<g>
			<path fill="#FFFFFF" d="M152.264,22.104h1.794v9.321h-1.794v-0.976c-0.736,0.829-1.526,1.243-2.373,1.243
				c-1.069,0-1.953-0.465-2.651-1.397c-0.693-0.95-1.04-2.137-1.04-3.56c0-1.397,0.347-2.561,1.04-3.493s1.561-1.397,2.604-1.397
				c0.899,0,1.706,0.446,2.421,1.339V22.104z M148.025,26.735c0,0.894,0.198,1.621,0.595,2.182c0.407,0.568,0.921,0.853,1.54,0.853
				c0.661,0,1.195-0.274,1.604-0.823c0.407-0.567,0.611-1.289,0.611-2.163s-0.204-1.595-0.611-2.163
				c-0.408-0.554-0.937-0.832-1.588-0.832c-0.613,0-1.127,0.281-1.54,0.842C148.229,25.198,148.025,25.899,148.025,26.735z"/>
		</g>
	</g>
	<g>
		<g>
			<path fill="#404A99" d="M166.574,32.555l2.531-15.591l4.129,11.271l4.275-11.271l2.274,15.591h-1.861l-1.16-8.753l-3.56,9.42
				l-3.459-9.43l-1.293,8.763H166.574z"/>
			<path fill="#404A99" d="M173.199,33.886l-3.362-9.168l-1.196,8.11h-2.34l2.722-16.764l4.215,11.508l4.369-11.516l2.446,16.771
				h-2.322l-1.073-8.093L173.199,33.886z M169.652,22.867l3.554,9.69l3.661-9.689l1.248,9.415h1.4l-2.103-14.411l-4.183,11.026
				l-4.041-11.033l-2.341,14.418h1.414L169.652,22.867z"/>
		</g>
		<g>
			<path fill="#404A99" d="M188.038,24.976l-3.311-6.922h2.064l2.297,4.912l2.415-4.912h2.08l-3.467,6.922l3.638,7.579h-2.033
				l-2.664-5.551l-2.741,5.551h-2.056L188.038,24.976z"/>
			<path fill="#404A99" d="M194.146,32.827h-2.555l-2.536-5.286l-2.61,5.286h-2.584l3.915-7.854l-3.439-7.191h2.587l2.17,4.64
				l2.281-4.64h2.608l-3.604,7.197L194.146,32.827z M191.852,32.283h1.512l-3.508-7.311l3.329-6.646h-1.552l-2.548,5.183
				l-2.425-5.183h-1.542l3.182,6.652l-3.641,7.305h1.529l2.872-5.816L191.852,32.283z"/>
		</g>
	</g>
</g>
</svg>
