<?xml version="1.0" encoding="utf-8"?>
<!-- Generator: Adobe Illustrator 16.0.0, SVG Export Plug-In . SVG Version: 6.00 Build 0)  -->
<!DOCTYPE svg PUBLIC "-//W3C//DTD SVG 1.1//EN" "http://www.w3.org/Graphics/SVG/1.1/DTD/svg11.dtd">
<svg version="1.1" id="Capa_1" xmlns="http://www.w3.org/2000/svg" xmlns:xlink="http://www.w3.org/1999/xlink" x="0px" y="0px"
	 width="200px" height="50px" viewBox="0 0 200 50" enable-background="new 0 0 200 50" xml:space="preserve">
<g>
	<path fill="#12110B" d="M4.001,31.718c0,0,0.671,9.039,19.825,12.037c0,0-7.098-11.381,0.552-22.721c0,0,6.261,7.097-0.552,22.721
		c0,0,15.682,2.397,20.412-10.555C44.237,33.2,26.817,6.793,4.001,31.718z"/>
	<path fill="#12110B" d="M26.617,44.183c-1.021,0-1.826-0.059-2.311-0.105l0.015,0.024l-0.843-0.131l0-0.002
		C4.673,40.928,3.804,32.116,3.776,31.741l-0.01-0.13l0.081-0.088c6.684-7.302,13.547-10.914,20.434-10.774l0.075-0.11l0.102,0.115
		c0.411,0.013,0.823,0.039,1.234,0.078c11.265,1.082,18.65,12.093,18.724,12.204l0.082,0.125l-0.053,0.145
		C40.937,42.913,31.404,44.183,26.617,44.183z M24.176,43.53c2.24,0.241,15.505,1.156,19.8-10.288
		c-0.839-1.203-7.897-10.881-18.325-11.88c-0.259-0.024-0.518-0.044-0.777-0.058C26.082,23.122,29.816,30.322,24.176,43.53z
		 M4.243,31.816c0.182,1.068,2.085,8.788,19.119,11.596c-1.231-2.311-5.797-12.242,0.569-22.134c-0.017,0-0.034,0-0.05,0
		C17.28,21.278,10.682,24.816,4.243,31.816z M24.391,21.445c-6.45,9.843-1.686,19.774-0.593,21.785
		C29.553,29.708,25.321,22.734,24.391,21.445z"/>
</g>
<g>
	<path fill="#FDD694" d="M59.14,22.098c0,0-2.486-4.06,0.689-5.743c3.174-1.684,4.257,0,4.257,0s0.674-5.133,5.649-2.422
		c0,0,2.319-3.587,5.762-0.032c0,0,3.521-0.492,3.822,2.658c0,0,3.822-1.697,5.165,2.963c0,0,4.6,2.126,1.777,6.731
		c0,0,3.131,4.735-1.232,7.416c0,0-0.697,3.867-3.983,2.875c0,0-1.346,3.273-4.677,0.154c0,0-0.772,2.247,0.899,2.929
		c1.672,0.681,0.124,6.723-3.135,2.832c0,0-2.289-3.427-1.446-6.327c0.434-1.492-0.912-2.528-2.319-3.184
		c-1.3-0.604-2.725-0.639-4.079-0.229c-1.134,0.343-2.765,0.343-4.056-1.638c0,0-3.853-1.483-2.771-4.829
		C59.461,26.253,57.244,24.537,59.14,22.098z"/>
</g>
<g>
	<path fill="#D68448" d="M106.865,32.945c-0.408-1.483,0.273-3.077,1.477-3.721c2.709-1.448,9.326-2.859,22.16-3.574
		c15.346-0.855,16.151-0.046,18.586,2.534c2.326,2.466-0.249,5.985-2.238,4.666c0,0,5.563,2.471,1.829,5.886
		c-2.001,1.83-4.269,0.499-5.942-1.131c-2.379-2.315-5.15-4.012-8.17-4.76c-4.766-1.18-11.519-2.253-16.251-0.518
		c-1.734,0.636-3.17,2.046-4.192,3.816c-0.764,1.321-2.094,2.82-3.863,1.711c-1.344-0.842-1.346-3.151,0.028-3.922
		c0.019-0.011,0.037-0.021,0.056-0.03C110.344,33.903,107.559,35.466,106.865,32.945z"/>
</g>
<g>
	<path fill="#D11317" d="M181.499,26.389c0,0,1.209,0.654,6.994-3.916c5.785-4.569,10.594,3.188,5.749,9.632
		c-4.844,6.444-10.132,6.995-12.017,9.567c-1.883,2.572-3.613-0.868-4.843-1.934c-1.229-1.066-15.4-9.734-11.679-16.408
		C169.425,16.658,181.499,26.389,181.499,26.389z"/>
</g>
</svg>
