<?xml version="1.0" encoding="utf-8"?>
<!-- Generator: Adobe Illustrator 16.0.0, SVG Export Plug-In . SVG Version: 6.00 Build 0)  -->
<!DOCTYPE svg PUBLIC "-//W3C//DTD SVG 1.1//EN" "http://www.w3.org/Graphics/SVG/1.1/DTD/svg11.dtd">
<svg version="1.1" id="Capa_1" xmlns="http://www.w3.org/2000/svg" xmlns:xlink="http://www.w3.org/1999/xlink" x="0px" y="0px"
	 width="250px" height="70px" viewBox="0 0 250 70" enable-background="new 0 0 250 70" xml:space="preserve">
<g>
	<polygon fill="#404A99" points="249.644,71.283 202.917,71.283 202.917,69.557 247.962,69.557 247.962,44.045 202.917,44.045 
		202.917,42.318 249.644,42.318 	"/>
</g>
<g>
	<rect x="1.82" y="43.182" fill="#404A99" width="201.097" height="27.238"/>
	<path fill="#404A99" d="M203.759,71.283H0.979V42.318h202.78V71.283z M2.661,69.557h199.416V44.045H2.661V69.557z"/>
</g>
<g>
	<g>
		<path fill="#FFFFFF" d="M9.867,53.838h6.569v-6.115h2.298v15.631h-2.298v-7.299H9.867v7.299H7.569V47.723h2.298V53.838z"/>
	</g>
	<g>
		<path fill="#FFFFFF" d="M25.545,58.352c0-1.422,0.496-2.635,1.489-3.633c0.993-1,2.202-1.498,3.629-1.498
			c1.434,0,2.65,0.502,3.649,1.508c0.986,1.006,1.479,2.24,1.479,3.705c0,1.479-0.497,2.717-1.489,3.715
			c-1,0.992-2.226,1.488-3.679,1.488c-1.44,0-2.646-0.506-3.62-1.518C26.032,61.119,25.545,59.865,25.545,58.352z M27.813,58.393
			c0,0.986,0.256,1.766,0.77,2.34c0.526,0.58,1.22,0.869,2.081,0.869c0.868,0,1.562-0.287,2.082-0.859
			c0.519-0.574,0.779-1.34,0.779-2.299s-0.26-1.725-0.779-2.299c-0.526-0.58-1.22-0.869-2.082-0.869
			c-0.848,0-1.535,0.289-2.061,0.869C28.077,56.727,27.813,57.475,27.813,58.393z"/>
	</g>
	<g>
		<path fill="#FFFFFF" d="M42.18,53.494h2.219v0.91c0.427-0.459,0.792-0.77,1.095-0.932c0.322-0.168,0.726-0.252,1.213-0.252
			c1.085,0,1.943,0.484,2.574,1.457c0.697-0.973,1.64-1.457,2.831-1.457c2.163,0,3.245,1.346,3.245,4.039v6.094h-2.229v-5.477
			c0-0.945-0.112-1.613-0.335-2.004c-0.23-0.398-0.608-0.598-1.134-0.598c-0.611,0-1.057,0.236-1.336,0.709
			c-0.28,0.473-0.419,1.23-0.419,2.277v5.092h-2.229v-5.447c0-1.754-0.494-2.631-1.479-2.631c-0.625,0-1.08,0.24-1.366,0.719
			s-0.429,1.234-0.429,2.268v5.092H42.18V53.494z"/>
	</g>
	<g>
		<path fill="#FFFFFF" d="M61.744,58.352c0-1.422,0.496-2.635,1.489-3.633c0.992-1,2.202-1.498,3.629-1.498
			c1.434,0,2.65,0.502,3.649,1.508c0.986,1.006,1.479,2.24,1.479,3.705c0,1.479-0.497,2.717-1.489,3.715
			c-1,0.992-2.226,1.488-3.679,1.488c-1.44,0-2.646-0.506-3.619-1.518C62.23,61.119,61.744,59.865,61.744,58.352z M64.012,58.393
			c0,0.986,0.256,1.766,0.77,2.34c0.526,0.58,1.219,0.869,2.081,0.869c0.868,0,1.562-0.287,2.081-0.859
			c0.52-0.574,0.779-1.34,0.779-2.299s-0.26-1.725-0.779-2.299c-0.526-0.58-1.219-0.869-2.081-0.869
			c-0.848,0-1.535,0.289-2.061,0.869C64.274,56.727,64.012,57.475,64.012,58.393z"/>
	</g>
	<g>
		<path fill="#FFFFFF" d="M85.854,53.918v3.027c-0.506-0.635-0.96-1.07-1.361-1.307c-0.395-0.242-0.858-0.363-1.39-0.363
			c-0.835,0-1.529,0.301-2.082,0.9c-0.552,0.602-0.828,1.354-0.828,2.258c0,0.924,0.266,1.684,0.799,2.277
			c0.539,0.594,1.226,0.891,2.062,0.891c0.532,0,1.002-0.117,1.41-0.354c0.394-0.23,0.858-0.674,1.391-1.336v3.006
			c-0.901,0.479-1.802,0.719-2.703,0.719c-1.486,0-2.729-0.492-3.728-1.479c-1-0.992-1.499-2.223-1.499-3.693
			c0-1.473,0.506-2.715,1.519-3.727c1.012-1.012,2.255-1.518,3.728-1.518C84.118,53.221,85.012,53.453,85.854,53.918z"/>
	</g>
	<g>
		<path fill="#FFFFFF" d="M91.708,49.395c0-0.398,0.141-0.744,0.424-1.033c0.282-0.291,0.621-0.436,1.016-0.436
			c0.401,0,0.743,0.145,1.026,0.436c0.283,0.283,0.424,0.631,0.424,1.043c0,0.41-0.141,0.762-0.424,1.053
			c-0.276,0.289-0.615,0.436-1.016,0.436c-0.401,0-0.743-0.146-1.025-0.436C91.85,50.166,91.708,49.813,91.708,49.395z
			 M94.263,53.494v9.859h-2.219v-9.859H94.263z"/>
	</g>
	<g>
		<path fill="#FFFFFF" d="M106.696,55.174l-1.834,1.002c-0.289-0.607-0.647-0.91-1.075-0.91c-0.204,0-0.378,0.068-0.522,0.207
			s-0.217,0.314-0.217,0.531c0,0.379,0.427,0.752,1.282,1.123c1.177,0.521,1.969,1,2.376,1.438c0.408,0.439,0.612,1.029,0.612,1.771
			c0,0.953-0.342,1.748-1.026,2.391c-0.664,0.607-1.466,0.91-2.407,0.91c-1.611,0-2.751-0.807-3.422-2.42l1.894-0.9
			c0.263,0.473,0.463,0.773,0.602,0.9c0.27,0.258,0.591,0.385,0.966,0.385c0.75,0,1.125-0.35,1.125-1.053
			c0-0.404-0.29-0.783-0.868-1.133c-0.224-0.115-0.447-0.227-0.67-0.334c-0.224-0.109-0.451-0.221-0.681-0.334
			c-0.645-0.324-1.098-0.648-1.361-0.973c-0.335-0.412-0.503-0.941-0.503-1.59c0-0.855,0.286-1.564,0.858-2.125
			c0.585-0.561,1.295-0.84,2.13-0.84C105.184,53.221,106.098,53.871,106.696,55.174z"/>
	</g>
	<g>
		<path fill="#FFFFFF" d="M115.638,55.619v7.734h-2.219v-7.734h-0.947v-2.125h0.947v-3.615h2.219v3.615h1.726v2.125H115.638z"/>
	</g>
	<g>
		<path fill="#FFFFFF" d="M122.577,49.395c0-0.398,0.142-0.744,0.424-1.033c0.282-0.291,0.621-0.436,1.016-0.436
			c0.401,0,0.743,0.145,1.026,0.436c0.283,0.283,0.424,0.631,0.424,1.043c0,0.41-0.142,0.762-0.424,1.053
			c-0.276,0.289-0.615,0.436-1.016,0.436c-0.401,0-0.744-0.146-1.026-0.436C122.718,50.166,122.577,49.813,122.577,49.395z
			 M125.131,53.494v9.859h-2.219v-9.859H125.131z"/>
	</g>
	<g>
		<path fill="#FFFFFF" d="M131.981,53.494h2.23v0.91c0.775-0.789,1.65-1.184,2.623-1.184c1.117,0,1.988,0.359,2.613,1.082
			c0.539,0.615,0.809,1.617,0.809,3.008v6.043h-2.229v-5.508c0-0.971-0.131-1.643-0.395-2.014c-0.256-0.377-0.725-0.566-1.4-0.566
			c-0.736,0-1.26,0.25-1.568,0.748c-0.303,0.492-0.453,1.354-0.453,2.582v4.758h-2.23V53.494z"/>
	</g>
	<g>
		<path fill="#FFFFFF" d="M149.317,53.494v5.658c0,1.633,0.627,2.449,1.883,2.449s1.885-0.816,1.885-2.449v-5.658h2.219v5.709
			c0,0.789-0.096,1.471-0.285,2.045c-0.186,0.514-0.504,0.975-0.957,1.387c-0.75,0.668-1.703,1.002-2.861,1.002
			c-1.15,0-2.1-0.334-2.85-1.002c-0.461-0.412-0.787-0.873-0.977-1.387c-0.184-0.459-0.275-1.141-0.275-2.045v-5.709H149.317z"/>
	</g>
	<g>
		<path fill="#FFFFFF" d="M162.144,53.494h2.221v0.879c0.406-0.438,0.768-0.738,1.084-0.9c0.322-0.168,0.703-0.252,1.145-0.252
			c0.584,0,1.195,0.195,1.834,0.586l-1.016,2.086c-0.422-0.311-0.832-0.465-1.232-0.465c-1.211,0-1.814,0.938-1.814,2.813v5.113
			h-2.221V53.494z"/>
	</g>
	<g>
		<path fill="#FFFFFF" d="M173.71,49.395c0-0.398,0.141-0.744,0.424-1.033c0.281-0.291,0.621-0.436,1.016-0.436
			c0.4,0,0.742,0.145,1.025,0.436c0.283,0.283,0.424,0.631,0.424,1.043c0,0.41-0.141,0.762-0.424,1.053
			c-0.275,0.289-0.615,0.436-1.016,0.436s-0.744-0.146-1.025-0.436C173.851,50.166,173.71,49.813,173.71,49.395z M176.265,53.494
			v9.859h-2.221v-9.859H176.265z"/>
	</g>
	<g>
		<path fill="#FFFFFF" d="M190.196,53.494h2.229v9.859h-2.229V62.32c-0.914,0.879-1.896,1.316-2.949,1.316
			c-1.328,0-2.426-0.492-3.295-1.479c-0.861-1.006-1.291-2.26-1.291-3.766c0-1.479,0.43-2.709,1.291-3.693
			c0.861-0.986,1.939-1.479,3.236-1.479c1.117,0,2.119,0.471,3.008,1.416V53.494z M184.929,58.393c0,0.945,0.248,1.715,0.74,2.309
			c0.506,0.6,1.145,0.9,1.914,0.9c0.82,0,1.484-0.289,1.992-0.869c0.506-0.602,0.76-1.363,0.76-2.289
			c0-0.924-0.254-1.688-0.76-2.287c-0.508-0.588-1.164-0.881-1.973-0.881c-0.764,0-1.4,0.297-1.914,0.891
			C185.183,56.766,184.929,57.508,184.929,58.393z"/>
	</g>
</g>
<g>
	<g>
		<path fill="#404A99" d="M207.979,64.549l3.146-16.492l5.131,11.922l5.313-11.922l2.826,16.492h-2.313l-1.441-9.26l-4.424,9.965
			l-4.299-9.975l-1.605,9.27H207.979z"/>
		<path fill="#404A99" d="M216.212,65.955l-4.178-9.697l-1.486,8.578h-2.908l3.383-17.734l5.238,12.174l5.428-12.182l3.041,17.742
			h-2.887l-1.332-8.561L216.212,65.955z M211.806,54.301l4.414,10.25l4.551-10.25l1.551,9.959h1.74l-2.611-15.244l-5.199,11.664
			l-5.021-11.67l-2.91,15.25h1.758L211.806,54.301z"/>
	</g>
	<g>
		<path fill="#404A99" d="M234.653,56.531l-4.115-7.322h2.566l2.855,5.195l3-5.195h2.584l-4.307,7.322l4.52,8.018h-2.525
			l-3.311-5.873l-3.406,5.873h-2.557L234.653,56.531z"/>
		<path fill="#404A99" d="M242.243,64.836h-3.174l-3.152-5.592l-3.244,5.592h-3.211l4.865-8.309l-4.273-7.605h3.213l2.699,4.908
			l2.834-4.908h3.24l-4.477,7.611L242.243,64.836z M239.392,64.26h1.879l-4.359-7.732l4.137-7.031h-1.928l-3.166,5.482l-3.014-5.482
			h-1.916l3.953,7.037l-4.523,7.727h1.9l3.568-6.152L239.392,64.26z"/>
	</g>
</g>
<g>
	<path fill="#12110B" d="M4.733,20.966c0,0,0.834,9.773,24.628,13.016c0,0-8.817-12.306,0.687-24.57c0,0,7.778,7.674-0.687,24.57
		c0,0,19.482,2.592,25.358-11.413C54.72,22.569,33.079-5.986,4.733,20.966z"/>
	<path fill="#12110B" d="M32.83,34.444c-1.269,0-2.269-0.063-2.871-0.113l0.018,0.026l-1.047-0.142l0-0.003
		C5.568,30.925,4.489,21.397,4.455,20.991l-0.012-0.141l0.101-0.096c8.304-7.896,16.83-11.801,25.385-11.649l0.093-0.12l0.126,0.125
		c0.511,0.014,1.022,0.042,1.533,0.084c13.994,1.169,23.17,13.077,23.261,13.197l0.102,0.134l-0.065,0.156
		C50.619,33.072,38.777,34.444,32.83,34.444z M29.797,33.74C32.579,34,49.06,34.99,54.395,22.614
		c-1.042-1.301-9.812-11.766-22.766-12.846c-0.321-0.027-0.644-0.048-0.965-0.063C32.166,11.67,36.804,19.458,29.797,33.74z
		 M5.035,21.072c0.226,1.155,2.59,9.503,23.751,12.539c-1.529-2.499-7.202-13.237,0.708-23.934c-0.021,0-0.042,0-0.062,0
		C21.23,9.676,13.034,13.502,5.035,21.072z M30.065,9.858c-8.013,10.643-2.095,21.383-0.737,23.557
		C36.477,18.792,31.22,11.251,30.065,9.858z"/>
</g>
<g>
	<path fill="#FDD694" d="M73.233,10.563c0,0-3.088-4.39,0.855-6.21c3.944-1.821,5.289,0,5.289,0s0.837-5.55,7.018-2.619
		c0,0,2.881-3.878,7.159-0.035c0,0,4.374-0.532,4.748,2.875c0,0,4.748-1.836,6.416,3.204c0,0,5.715,2.3,2.208,7.278
		c0,0,3.89,5.12-1.531,8.019c0,0-0.865,4.182-4.948,3.109c0,0-1.672,3.54-5.811,0.167c0,0-0.96,2.43,1.117,3.167
		s0.153,7.269-3.896,3.063c0,0-2.843-3.706-1.796-6.842c0.539-1.614-1.132-2.735-2.881-3.442c-1.615-0.653-3.385-0.69-5.066-0.248
		c-1.41,0.371-3.435,0.371-5.039-1.771c0,0-4.787-1.604-3.442-5.222C73.633,15.056,70.878,13.201,73.233,10.563z"/>
</g>
<g>
	<path fill="#D68448" d="M132.524,22.292c-0.508-1.603,0.34-3.327,1.834-4.023c3.365-1.566,11.586-3.091,27.529-3.865
		c19.064-0.924,20.066-0.049,23.09,2.74c2.891,2.666-0.309,6.472-2.779,5.046c0,0,6.91,2.671,2.271,6.364
		c-2.486,1.979-5.303,0.54-7.383-1.222c-2.955-2.504-6.398-4.339-10.148-5.147c-5.922-1.277-14.311-2.437-20.189-0.561
		c-2.154,0.688-3.939,2.213-5.209,4.128c-0.947,1.428-2.6,3.048-4.799,1.849c-1.67-0.91-1.672-3.407,0.035-4.241
		c0.023-0.011,0.045-0.022,0.068-0.033C136.845,23.329,133.386,25.018,132.524,22.292z"/>
</g>
<g>
	<path fill="#D11317" d="M225.243,15.203c0,0,1.502,0.707,8.689-4.234c7.186-4.941,13.16,3.447,7.141,10.416
		c-6.018,6.969-12.586,7.564-14.928,10.345c-2.34,2.781-4.488-0.938-6.018-2.091c-1.527-1.153-19.131-10.526-14.508-17.742
		S225.243,15.203,225.243,15.203z"/>
</g>
</svg>
